<svg width="492.73642578125px" height="80px" xmlns="http://www.w3.org/2000/svg" viewBox="3.6317871093750114 35 492.73642578125 80" style="background: rgb(255, 255, 255);" preserveAspectRatio="xMidYMid"><defs><filter id="editing-hole" x="-100%" y="-100%" width="300%" height="300%"><feFlood flood-color="#ffffff" result="black"></feFlood><feMorphology operator="dilate" radius="2" in="SourceGraphic" result="erode"></feMorphology><feGaussianBlur in="erode" stdDeviation="4" result="blur"></feGaussianBlur><feOffset in="blur" dx="2" dy="2" result="offset"></feOffset><feComposite operator="atop" in="offset" in2="black" result="merge"></feComposite><feComposite operator="in" in="merge" in2="SourceGraphic" result="inner-shadow"></feComposite></filter></defs><g filter="url(#editing-hole)"><g transform="translate(76.44340538978577, 92.48000144958496)"><path d="M16.04-12.24L23.71-12.92L23.71-12.92Q20.98-6.92 20.98 0.04L20.98 0.04L20.98 0.04Q19.95 0.76 18.45 0.76L18.45 0.76L18.45 0.76Q16.95 0.76 16.00 0.06L16.00 0.06L16.00 0.06Q15.05-0.65 14.86-1.37L14.86-1.37L14.86-1.37Q13.91-0.38 12.37 0.19L12.37 0.19L12.37 0.19Q10.83 0.76 9.20 0.76L9.20 0.76L9.20 0.76Q7.56 0.76 6.14 0.23L6.14 0.23L6.14 0.23Q4.71-0.30 3.61-1.48L3.61-1.48L3.61-1.48Q1.18-4.07 1.18-8.97L1.18-8.97L1.18-8.97Q1.18-16.57 5.24-21.13L5.24-21.13L5.24-21.13Q9.42-25.84 16.83-25.84L16.83-25.84L16.83-25.84Q21.96-25.84 23.79-23.18L23.79-23.18L23.79-23.18Q24.36-22.34 24.36-21.34L24.36-21.34L24.36-21.34Q24.36-20.33 23.92-19.47L23.92-19.47L23.92-19.47Q23.48-18.62 22.80-17.94L22.80-17.94L22.80-17.94Q21.17-16.42 19.15-16.42L19.15-16.42L19.15-16.42Q18.35-16.42 17.59-16.68L17.59-16.68L17.59-16.68Q17.75-17.82 17.75-19.15L17.75-19.15L17.75-19.15Q17.75-20.48 17.65-21.09L17.65-21.09L17.65-21.09Q17.56-21.70 17.33-22.19L17.33-22.19L17.33-22.19Q16.83-23.22 15.75-23.22L15.75-23.22L15.75-23.22Q14.67-23.22 13.47-22.06L13.47-22.06L13.47-22.06Q12.27-20.90 11.32-19L11.32-19L11.32-19Q9.23-14.74 9.23-9.61L9.23-9.61L9.23-9.61Q9.23-7.26 10.15-5.59L10.15-5.59L10.15-5.59Q11.13-3.76 12.88-3.76L12.88-3.76L12.88-3.76Q13.49-3.76 14.04-4.07L14.04-4.07L14.04-4.07Q14.59-4.37 14.82-4.60L14.82-4.60L16.04-12.24ZM33.86 0.76L33.86 0.76L33.86 0.76Q25.50 0.76 25.50-7.11L25.50-7.11L25.50-7.11Q25.50-12.69 28.58-16.30L28.58-16.30L28.58-16.30Q31.84-20.14 37.51-20.14L37.51-20.14L37.51-20.14Q41.61-20.14 43.70-18.24L43.70-18.24L43.70-18.24Q45.79-16.34 45.79-12.35L45.79-12.35L45.79-12.35Q45.79-6.27 42.52-2.74L42.52-2.74L42.52-2.74Q39.33 0.76 33.86 0.76ZM34.85-15.77L34.85-15.77L34.85-15.77Q34.39-14.74 34.03-13.21L34.03-13.21L34.03-13.21Q33.67-11.67 33.21-9.23L33.21-9.23L33.21-9.23Q32.76-6.80 32.76-3.80L32.76-3.80L32.76-3.80Q32.76-2.81 33.08-2.17L33.08-2.17L33.08-2.17Q33.40-1.52 34.28-1.52L34.28-1.52L34.28-1.52Q35.15-1.52 35.70-1.94L35.70-1.94L35.70-1.94Q36.25-2.36 36.67-3.34L36.67-3.34L36.67-3.34Q37.43-5.09 38.04-8.34L38.04-8.34L38.04-8.34Q38.65-11.59 38.70-13.00L38.70-13.00L38.70-13.00Q38.76-14.40 38.76-15.45L38.76-15.45L38.76-15.45Q38.76-16.49 38.46-17.18L38.46-17.18L38.46-17.18Q38.15-17.86 37.30-17.86L37.30-17.86L37.30-17.86Q36.44-17.86 35.87-17.33L35.87-17.33L35.87-17.33Q35.30-16.80 34.85-15.77ZM60.00-20.14L60.00-20.14L60.00-20.14Q61.37-20.14 62.43-19.84L62.43-19.84L62.43-19.84Q62.47-19.99 62.55-20.41L62.55-20.41L62.74-21.58L62.74-21.58Q62.89-22.34 63.12-23.60L63.12-23.60L63.73-26.60L71.29-27.36L67.07-5.32L67.07-5.32Q67.03-5.09 67.03-4.71L67.03-4.71L67.03-4.10L67.03-4.10Q67.03-3.27 67.45-2.64L67.45-2.64L67.45-2.64Q67.87-2.01 68.55-2.01L68.55-2.01L68.55-2.01Q67.79-0.23 65.47 0.53L65.47 0.53L65.47 0.53Q64.68 0.76 63.55 0.76L63.55 0.76L63.55 0.76Q62.43 0.76 61.41 0.17L61.41 0.17L61.41 0.17Q60.38-0.42 60.08-1.41L60.08-1.41L60.08-1.41Q59.47-0.42 58.25 0.17L58.25 0.17L58.25 0.17Q57.04 0.76 55.27 0.76L55.27 0.76L55.27 0.76Q53.50 0.76 52.04 0.30L52.04 0.30L52.04 0.30Q50.58-0.15 49.67-1.14L49.67-1.14L49.67-1.14Q47.99-3.08 47.99-7.49L47.99-7.49L47.99-7.49Q47.99-13.19 51.34-16.64L51.34-16.64L51.34-16.64Q54.68-20.14 60.00-20.14ZM59.74-17.86L59.74-17.86L59.74-17.86Q58.33-17.86 57.57-16.34L57.57-16.34L57.57-16.34Q56.81-14.82 56.03-11.06L56.03-11.06L56.03-11.06Q55.25-7.30 55.25-3.91L55.25-3.91L55.25-3.91Q55.25-1.60 56.62-1.60L56.62-1.60L56.62-1.60Q57.84-1.60 58.69-2.81L58.69-2.81L58.69-2.81Q59.55-4.03 59.89-6.04L59.89-6.04L61.94-17.18L61.94-17.18Q61.14-17.86 59.74-17.86ZM99.14 0.76L99.14 0.76L99.14 0.76Q94.54 0.76 94.54-2.81L94.54-2.81L94.54-2.81Q94.54-4.37 95.21-7.39L95.21-7.39L95.21-7.39Q95.87-10.41 96.10-11.63L96.10-11.63L96.10-11.63Q96.63-14.40 96.63-15.28L96.63-15.28L96.63-15.28Q96.63-17.21 95.19-17.21L95.19-17.21L95.19-17.21Q94.24-17.21 93.33-15.90L93.33-15.90L93.33-15.90Q92.42-14.59 92.00-11.97L92.00-11.97L89.64 0L82.23 0.76L84.28-9.58L84.28-9.58Q84.63-11.29 84.93-13.22L84.93-13.22L84.93-13.22Q85.23-15.16 85.23-15.47L85.23-15.47L85.23-15.47Q85.23-17.21 83.94-17.21L83.94-17.21L83.94-17.21Q83.07-17.21 82.12-15.92L82.12-15.92L82.12-15.92Q81.17-14.63 80.64-11.97L80.64-11.97L78.32 0L70.83 0.76L74.82-19.38L81.02-20.14L80.37-16.30L80.37-16.30Q81.36-18.35 83.18-19.25L83.18-19.25L83.18-19.25Q85.01-20.14 87.86-20.14L87.86-20.14L87.86-20.14Q89.49-20.14 90.55-19.34L90.55-19.34L90.55-19.34Q91.62-18.54 91.96-17.25L91.96-17.25L91.96-17.25Q92.61-18.58 94.26-19.36L94.26-19.36L94.26-19.36Q95.91-20.14 97.94-20.14L97.94-20.14L97.94-20.14Q99.98-20.14 100.98-19.70L100.98-19.70L100.98-19.70Q101.99-19.27 102.60-18.54L102.60-18.54L102.60-18.54Q103.63-17.21 103.63-14.78L103.63-14.78L103.63-14.78Q103.63-12.39 102.60-7.41L102.60-7.41L102.60-7.41Q102.07-4.98 102.07-4.08L102.07-4.08L102.07-4.08Q102.07-3.19 102.58-2.66L102.58-2.66L102.58-2.66Q103.09-2.13 103.85-2.05L103.85-2.05L103.85-2.05Q103.47-0.76 102.16 0L102.16 0L102.16 0Q100.85 0.76 99.14 0.76ZM108.43-1.14L108.43-1.14L108.43-1.14Q107.54-2.13 107.14-3.69L107.14-3.69L107.14-3.69Q106.74-5.24 106.74-7.79L106.74-7.79L106.74-7.79Q106.74-10.34 107.62-12.65L107.62-12.65L107.62-12.65Q108.49-14.97 110.09-16.64L110.09-16.64L110.09-16.64Q113.35-20.14 118.75-20.14L118.75-20.14L118.75-20.14Q120.69-20.14 122.09-19.49L122.09-19.49L128.59-20.14L125.78-5.32L125.78-5.32Q125.67-4.86 125.67-4.03L125.67-4.03L125.67-4.03Q125.67-3.19 126.18-2.66L126.18-2.66L126.18-2.66Q126.69-2.13 127.45-2.05L127.45-2.05L127.45-2.05Q127.07-0.76 125.68 0L125.68 0L125.68 0Q124.30 0.76 122.74 0.76L122.74 0.76L122.74 0.76Q121.18 0.76 120.14 0.17L120.14 0.17L120.14 0.17Q119.09-0.42 118.79-1.41L118.79-1.41L118.79-1.41Q118.18-0.46 116.89 0.15L116.89 0.15L116.89 0.15Q115.60 0.76 113.87 0.76L113.87 0.76L113.87 0.76Q112.14 0.76 110.73 0.30L110.73 0.30L110.73 0.30Q109.33-0.15 108.43-1.14ZM116.45-16.57L116.45-16.57L116.45-16.57Q116.01-15.88 115.63-14.72L115.63-14.72L115.63-14.72Q115.25-13.57 114.63-10.47L114.63-10.47L114.63-10.47Q114.00-7.37 114.00-5.17L114.00-5.17L114.00-5.17Q114.00-2.96 114.34-2.32L114.34-2.32L114.34-2.32Q114.68-1.67 115.29-1.67L115.29-1.67L115.29-1.67Q116.51-1.67 117.40-2.83L117.40-2.83L117.40-2.83Q118.29-3.99 118.64-6.04L118.64-6.04L120.65-17.18L120.65-17.18Q119.85-17.86 118.92-17.86L118.92-17.86L118.92-17.86Q117.99-17.86 117.44-17.56L117.44-17.56L117.44-17.56Q116.89-17.25 116.45-16.57ZM146.72 0.76L146.72 0.76L146.72 0.76Q142.12 0.76 142.12-2.81L142.12-2.81L142.12-2.81Q142.16-3.80 142.46-5.47L142.46-5.47L143.15-8.97L143.15-8.97Q144.17-13.91 144.17-15.01L144.17-15.01L144.17-15.01Q144.17-17.21 142.88-17.21L142.88-17.21L142.88-17.21Q140.71-17.21 139.57-11.55L139.57-11.55L137.33 0L129.69 0.76L133.65-19.42L139.88-20.14L139.27-16.42L139.27-16.42Q141.06-20.14 146.53-20.14L146.53-20.14L146.53-20.14Q149.19-20.14 150.31-19.02L150.31-19.02L150.31-19.02Q151.43-17.90 151.43-15.39L151.43-15.39L151.43-15.39Q151.43-13.03 150.21-7.52L150.21-7.52L150.21-7.52Q149.64-5.05 149.64-4.12L149.64-4.12L149.64-4.12Q149.64-3.19 150.16-2.66L150.16-2.66L150.16-2.66Q150.67-2.13 151.43-2.05L151.43-2.05L151.43-2.05Q151.05-0.76 149.74 0L149.74 0L149.74 0Q148.43 0.76 146.72 0.76ZM165.34-18.51L165.34-18.51L165.34-18.51Q164.05-19.49 164.05-21.60L164.05-21.60L164.05-21.60Q164.05-23.71 165.43-24.81L165.43-24.81L165.43-24.81Q166.82-25.92 169.21-25.92L169.21-25.92L169.21-25.92Q170.73-25.92 174.34-25.38L174.34-25.38L176.93-25.00L176.93-25.00Q178.22-24.85 179.57-24.85L179.57-24.85L179.57-24.85Q180.92-24.85 181.83-25.42L181.83-25.42L181.83-25.42Q183.20-24.21 183.20-22.46L183.20-22.46L183.20-22.46Q183.20-20.71 181.64-19.46L181.64-19.46L181.64-19.46Q180.04-18.13 177.99-18.13L177.99-18.13L177.99-18.13Q177.00-18.13 175.41-18.39L175.41-18.39L175.41-18.39Q173.55-12.54 173.55-8.47L173.55-8.47L173.55-8.47Q173.55-4.41 175.60-2.28L175.60-2.28L175.60-2.28Q174.65-0.57 173.24 0.10L173.24 0.10L173.24 0.10Q171.84 0.76 169.73 0.76L169.73 0.76L169.73 0.76Q167.62 0.76 166.31-0.40L166.31-0.40L166.31-0.40Q165.00-1.56 165.00-3.95L165.00-3.95L165.00-3.95Q165.00-6.73 166.52-11.29L166.52-11.29L166.52-11.29Q168.04-15.81 170.32-19.27L170.32-19.27L170.32-19.27Q169.21-19.38 168.07-19.38L168.07-19.38L168.07-19.38Q165.72-19.38 165.34-18.51ZM193.65-10.68L193.65-10.68L193.65-10.68Q195.02-13.11 195.02-15.58L195.02-15.58L195.02-15.58Q195.02-17.21 193.84-17.21L193.84-17.21L193.84-17.21Q192.93-17.21 191.98-15.66L191.98-15.66L191.98-15.66Q190.99-14.10 190.68-12.08L190.68-12.08L188.71 0L180.84 0.76L184.72-19.38L190.99-20.14L190.30-16.30L190.30-16.30Q192.17-20.14 196.35-20.14L196.35-20.14L196.35-20.14Q198.55-20.14 199.75-19L199.75-19L199.75-19Q200.94-17.86 200.94-15.52L200.94-15.52L200.94-15.52Q200.94-13.19 199.40-11.70L199.40-11.70L199.40-11.70Q197.87-10.22 195.24-10.22L195.24-10.22L195.24-10.22Q194.10-10.22 193.65-10.68ZM203.20-1.14L203.20-1.14L203.20-1.14Q202.31-2.13 201.91-3.69L201.91-3.69L201.91-3.69Q201.51-5.24 201.51-7.79L201.51-7.79L201.51-7.79Q201.51-10.34 202.39-12.65L202.39-12.65L202.39-12.65Q203.26-14.97 204.86-16.64L204.86-16.64L204.86-16.64Q208.13-20.14 213.52-20.14L213.52-20.14L213.52-20.14Q215.46-20.14 216.87-19.49L216.87-19.49L223.36-20.14L220.55-5.32L220.55-5.32Q220.44-4.86 220.44-4.03L220.44-4.03L220.44-4.03Q220.44-3.19 220.95-2.66L220.95-2.66L220.95-2.66Q221.46-2.13 222.22-2.05L222.22-2.05L222.22-2.05Q221.84-0.76 220.46 0L220.46 0L220.46 0Q219.07 0.76 217.51 0.76L217.51 0.76L217.51 0.76Q215.95 0.76 214.91 0.17L214.91 0.17L214.91 0.17Q213.86-0.42 213.56-1.41L213.56-1.41L213.56-1.41Q212.95-0.46 211.66 0.15L211.66 0.15L211.66 0.15Q210.37 0.76 208.64 0.76L208.64 0.76L208.64 0.76Q206.91 0.76 205.50 0.30L205.50 0.30L205.50 0.30Q204.10-0.15 203.20-1.14ZM211.22-16.57L211.22-16.57L211.22-16.57Q210.79-15.88 210.41-14.72L210.41-14.72L210.41-14.72Q210.03-13.57 209.40-10.47L209.40-10.47L209.40-10.47Q208.77-7.37 208.77-5.17L208.77-5.17L208.77-5.17Q208.77-2.96 209.11-2.32L209.11-2.32L209.11-2.32Q209.46-1.67 210.06-1.67L210.06-1.67L210.06-1.67Q211.28-1.67 212.17-2.83L212.17-2.83L212.17-2.83Q213.07-3.99 213.41-6.04L213.41-6.04L215.42-17.18L215.42-17.18Q214.62-17.86 213.69-17.86L213.69-17.86L213.69-17.86Q212.76-17.86 212.21-17.56L212.21-17.56L212.21-17.56Q211.66-17.25 211.22-16.57ZM241.49 0.76L241.49 0.76L241.49 0.76Q236.89 0.76 236.89-2.81L236.89-2.81L236.89-2.81Q236.93-3.80 237.23-5.47L237.23-5.47L237.92-8.97L237.92-8.97Q238.94-13.91 238.94-15.01L238.94-15.01L238.94-15.01Q238.94-17.21 237.65-17.21L237.65-17.21L237.65-17.21Q235.49-17.21 234.35-11.55L234.35-11.55L232.10 0L224.47 0.76L228.42-19.42L234.65-20.14L234.04-16.42L234.04-16.42Q235.83-20.14 241.30-20.14L241.30-20.14L241.30-20.14Q243.96-20.14 245.08-19.02L245.08-19.02L245.08-19.02Q246.20-17.90 246.20-15.39L246.20-15.39L246.20-15.39Q246.20-13.03 244.99-7.52L244.99-7.52L244.99-7.52Q244.42-5.05 244.42-4.12L244.42-4.12L244.42-4.12Q244.42-3.19 244.93-2.66L244.93-2.66L244.93-2.66Q245.44-2.13 246.20-2.05L246.20-2.05L246.20-2.05Q245.82-0.76 244.51 0L244.51 0L244.51 0Q243.20 0.76 241.49 0.76ZM260.60-13.34L260.60-13.34L260.60-13.34Q261.14-14.74 261.14-15.96L261.14-15.96L261.14-15.96Q261.14-18.20 259.31-18.20L259.31-18.20L259.31-18.20Q258.36-18.20 257.58-17.35L257.58-17.35L257.58-17.35Q256.80-16.49 256.80-15.43L256.80-15.43L256.80-15.43Q256.80-14.67 257.41-14.06L257.41-14.06L257.41-14.06Q258.29-13.22 260.53-11.86L260.53-11.86L260.53-11.86Q262.77-10.49 263.63-9.37L263.63-9.37L263.63-9.37Q264.48-8.25 264.48-6.71L264.48-6.71L264.48-6.71Q264.48-5.17 263.74-3.76L263.74-3.76L263.74-3.76Q263.00-2.36 261.67-1.37L261.67-1.37L261.67-1.37Q258.82 0.76 254.26 0.76L254.26 0.76L254.26 0.76Q251.79 0.76 249.89-0.53L249.89-0.53L249.89-0.53Q247.99-1.79 247.99-3.27L247.99-3.27L247.99-3.27Q247.99-4.75 249.07-5.62L249.07-5.62L249.07-5.62Q250.15-6.50 251.75-6.50L251.75-6.50L251.75-6.50Q253.35-6.50 254.33-5.89L254.33-5.89L254.33-5.89Q253.84-4.64 253.84-3.80L253.84-3.80L253.84-3.80Q253.84-1.29 255.97-1.29L255.97-1.29L255.97-1.29Q256.88-1.29 257.49-1.86L257.49-1.86L257.49-1.86Q258.10-2.43 258.10-3.42L258.10-3.42L258.10-3.42Q258.10-5.36 254.83-7.41L254.83-7.41L254.83-7.41Q252.17-9.16 251.56-9.84L251.56-9.84L251.56-9.84Q250.53-11.06 250.53-12.58L250.53-12.58L250.53-12.58Q250.53-14.10 251.26-15.54L251.26-15.54L251.26-15.54Q251.98-16.99 253.31-18.01L253.31-18.01L253.31-18.01Q256.08-20.14 260.91-20.14L260.91-20.14L260.91-20.14Q263.38-20.14 264.84-19.15L264.84-19.15L264.84-19.15Q266.30-18.16 266.30-16.49L266.30-16.49L266.30-16.49Q266.30-14.82 265.30-13.87L265.30-13.87L265.30-13.87Q264.29-12.92 262.47-12.92L262.47-12.92L262.47-12.92Q261.21-12.92 260.60-13.34ZM285.42-2.60L285.42-2.60L285.42-2.60Q283.82-0.99 281.64-0.11L281.64-0.11L281.64-0.11Q279.45 0.76 277.29 0.76L277.29 0.76L277.29 0.76Q275.12 0.76 274.36 0.38L274.36 0.38L273.18 6.84L265.47 7.60L270.71-19.38L276.91-20.03L276.41-17.40L276.41-17.40Q278.01-20.10 281.31-20.10L281.31-20.10L281.31-20.10Q285.04-20.10 287.01-17.71L287.01-17.71L287.01-17.71Q288.76-15.54 288.76-12.24L288.76-12.24L288.76-12.24Q288.76-8.93 287.89-6.57L287.89-6.57L287.89-6.57Q287.01-4.22 285.42-2.60ZM276.83-13.26L274.82-2.13L274.82-2.13Q275.61-1.44 276.60-1.44L276.60-1.44L276.60-1.44Q277.59-1.44 278.16-1.82L278.16-1.82L278.16-1.82Q278.73-2.20 279.15-2.96L279.15-2.96L279.15-2.96Q280.29-5.02 281.20-11.25L281.20-11.25L281.20-11.25Q281.47-13.07 281.47-14.86L281.47-14.86L281.47-14.86Q281.47-16.64 281.07-17.21L281.07-17.21L281.07-17.21Q280.67-17.78 279.91-17.78L279.91-17.78L279.91-17.78Q277.59-17.78 276.83-13.26L276.83-13.26ZM299.33 0.76L299.33 0.76L299.33 0.76Q290.97 0.76 290.97-7.11L290.97-7.11L290.97-7.11Q290.97-12.69 294.04-16.30L294.04-16.30L294.04-16.30Q297.31-20.14 302.97-20.14L302.97-20.14L302.97-20.14Q307.08-20.14 309.17-18.24L309.17-18.24L309.17-18.24Q311.26-16.34 311.26-12.35L311.26-12.35L311.26-12.35Q311.26-6.27 307.99-2.74L307.99-2.74L307.99-2.74Q304.80 0.76 299.33 0.76ZM300.31-15.77L300.31-15.77L300.31-15.77Q299.86-14.74 299.50-13.21L299.50-13.21L299.50-13.21Q299.14-11.67 298.68-9.23L298.68-9.23L298.68-9.23Q298.22-6.80 298.22-3.80L298.22-3.80L298.22-3.80Q298.22-2.81 298.55-2.17L298.55-2.17L298.55-2.17Q298.87-1.52 299.74-1.52L299.74-1.52L299.74-1.52Q300.62-1.52 301.17-1.94L301.17-1.94L301.17-1.94Q301.72-2.36 302.14-3.34L302.14-3.34L302.14-3.34Q302.90-5.09 303.51-8.34L303.51-8.34L303.51-8.34Q304.11-11.59 304.17-13.00L304.17-13.00L304.17-13.00Q304.23-14.40 304.23-15.45L304.23-15.45L304.23-15.45Q304.23-16.49 303.92-17.18L303.92-17.18L303.92-17.18Q303.62-17.86 302.76-17.86L302.76-17.86L302.76-17.86Q301.91-17.86 301.34-17.33L301.34-17.33L301.34-17.33Q300.77-16.80 300.31-15.77ZM325.39-10.68L325.39-10.68L325.39-10.68Q326.76-13.11 326.76-15.58L326.76-15.58L326.76-15.58Q326.76-17.21 325.58-17.21L325.58-17.21L325.58-17.21Q324.67-17.21 323.72-15.66L323.72-15.66L323.72-15.66Q322.73-14.10 322.43-12.08L322.43-12.08L320.45 0L312.59 0.76L316.46-19.38L322.73-20.14L322.05-16.30L322.05-16.30Q323.91-20.14 328.09-20.14L328.09-20.14L328.09-20.14Q330.30-20.14 331.49-19L331.49-19L331.49-19Q332.69-17.86 332.69-15.52L332.69-15.52L332.69-15.52Q332.69-13.19 331.15-11.70L331.15-11.70L331.15-11.70Q329.61-10.22 326.99-10.22L326.99-10.22L326.99-10.22Q325.85-10.22 325.39-10.68ZM333.91-3.80L333.91-3.80L333.91-3.80Q333.91-4.83 334.44-7.41L334.44-7.41L336.45-17.67L334.21-17.67L334.36-18.81L334.36-18.81Q338.92-20.18 343.33-23.52L343.33-23.52L345.15-23.52L344.24-19.38L347.21-19.38L346.86-17.67L343.94-17.67L342.00-7.41L342.00-7.41Q341.51-5.05 341.51-4.26L341.51-4.26L341.51-4.26Q341.51-2.43 343.10-2.05L343.10-2.05L343.10-2.05Q342.72-0.76 341.35 0L341.35 0L341.35 0Q339.99 0.76 338.05 0.76L338.05 0.76L338.05 0.76Q336.11 0.76 335.01-0.46L335.01-0.46L335.01-0.46Q333.91-1.67 333.91-3.80Z" fill="#ffffff"></path></g></g><style>text {
  font-size: 64px;
  font-family: Arial Black;
  dominant-baseline: central;
  text-anchor: middle;
}</style></svg>