<svg width="492.7px" height="80px" xmlns="http://www.w3.org/2000/svg" viewBox="3.6317871093750114 35 492.73642578125 80" style="background: rgb(255, 255, 255)" preserveAspectRatio="xMidYMid"><defs><filter id="editing-hole" x="-100%" y="-100%" width="300%" height="300%"><feFlood flood-color="#ffffff" result="black"></feFlood><feMorphology operator="dilate" radius="2" in="SourceGraphic" result="erode"></feMorphology><feGaussianBlur in="erode" stdDeviation="4" result="blur"></feGaussianBlur><feOffset in="blur" dx="2" dy="2" result="offset"></feOffset><feComposite operator="atop" in="offset" in2="black" result="merge"></feComposite><feComposite operator="in" in="merge" in2="SourceGraphic" result="inner-shadow"></feComposite></filter></defs><g filter="url(#editing-hole)"><g transform="matrix(1.3,0,0,2.6,201.2,299.2)"><path d="M -123.9 -88.1 L -116.2 -88.8 L -116.2 -88.8 Q -118.9 -82.8 -118.9 -75.8 L -118.9 -75.8 L -118.9 -75.8 Q -119.9 -75.1 -121.4 -75.1 L -121.4 -75.1 L -121.4 -75.1 Q -122.9 -75.1 -123.9 -75.8 L -123.9 -75.8 L -123.9 -75.8 Q -124.8 -76.5 -125 -77.2 L -125 -77.2 L -125 -77.2 Q -126 -76.2 -127.5 -75.6 L -127.5 -75.6 L -127.5 -75.6 Q -129.1 -75.1 -130.7 -75.1 L -130.7 -75.1 L -130.7 -75.1 Q -132.3 -75.1 -133.8 -75.6 L -133.8 -75.6 L -133.8 -75.6 Q -135.2 -76.1 -136.3 -77.3 L -136.3 -77.3 L -136.3 -77.3 Q -138.7 -79.9 -138.7 -84.8 L -138.7 -84.8 L -138.7 -84.8 Q -138.7 -92.4 -134.7 -97 L -134.7 -97 L -134.7 -97 Q -130.5 -101.7 -123.1 -101.7 L -123.1 -101.7 L -123.1 -101.7 Q -117.9 -101.7 -116.1 -99 L -116.1 -99 L -116.1 -99 Q -115.5 -98.2 -115.5 -97.2 L -115.5 -97.2 L -115.5 -97.2 Q -115.5 -96.2 -116 -95.3 L -116 -95.3 L -116 -95.3 Q -116.4 -94.5 -117.1 -93.8 L -117.1 -93.8 L -117.1 -93.8 Q -118.7 -92.3 -120.7 -92.3 L -120.7 -92.3 L -120.7 -92.3 Q -121.5 -92.3 -122.3 -92.5 L -122.3 -92.5 L -122.3 -92.5 Q -122.1 -93.7 -122.1 -95 L -122.1 -95 L -122.1 -95 Q -122.1 -96.3 -122.2 -96.9 L -122.2 -96.9 L -122.2 -96.9 Q -122.3 -97.5 -122.6 -98 L -122.6 -98 L -122.6 -98 Q -123.1 -99.1 -124.1 -99.1 L -124.1 -99.1 L -124.1 -99.1 Q -125.2 -99.1 -126.4 -97.9 L -126.4 -97.9 L -126.4 -97.9 Q -127.6 -96.7 -128.6 -94.8 L -128.6 -94.8 L -128.6 -94.8 Q -130.7 -90.6 -130.7 -85.4 L -130.7 -85.4 L -130.7 -85.4 Q -130.7 -83.1 -129.7 -81.4 L -129.7 -81.4 L -129.7 -81.4 Q -128.8 -79.6 -127 -79.6 L -127 -79.6 L -127 -79.6 Q -126.4 -79.6 -125.9 -79.9 L -125.9 -79.9 L -125.9 -79.9 Q -125.3 -80.2 -125.1 -80.4 L -125.1 -80.4 L -123.9 -88.1 Z M -106 -75.1 L -106 -75.1 L -106 -75.1 Q -114.4 -75.1 -114.4 -82.9 L -114.4 -82.9 L -114.4 -82.9 Q -114.4 -88.5 -111.3 -92.1 L -111.3 -92.1 L -111.3 -92.1 Q -108.1 -96 -102.4 -96 L -102.4 -96 L -102.4 -96 Q -98.3 -96 -96.2 -94.1 L -96.2 -94.1 L -96.2 -94.1 Q -94.1 -92.2 -94.1 -88.2 L -94.1 -88.2 L -94.1 -88.2 Q -94.1 -82.1 -97.4 -78.6 L -97.4 -78.6 L -97.4 -78.6 Q -100.6 -75.1 -106 -75.1 Z M -105 -91.6 L -105 -91.6 L -105 -91.6 Q -105.5 -90.6 -105.9 -89 L -105.9 -89 L -105.9 -89 Q -106.2 -87.5 -106.7 -85.1 L -106.7 -85.1 L -106.7 -85.1 Q -107.1 -82.6 -107.1 -79.6 L -107.1 -79.6 L -107.1 -79.6 Q -107.1 -78.6 -106.8 -78 L -106.8 -78 L -106.8 -78 Q -106.5 -77.4 -105.6 -77.4 L -105.6 -77.4 L -105.6 -77.4 Q -104.7 -77.4 -104.2 -77.8 L -104.2 -77.8 L -104.2 -77.8 Q -103.6 -78.2 -103.2 -79.2 L -103.2 -79.2 L -103.2 -79.2 Q -102.5 -80.9 -101.9 -84.2 L -101.9 -84.2 L -101.9 -84.2 Q -101.2 -87.4 -101.2 -88.8 L -101.2 -88.8 L -101.2 -88.8 Q -101.1 -90.2 -101.1 -91.3 L -101.1 -91.3 L -101.1 -91.3 Q -101.1 -92.3 -101.4 -93 L -101.4 -93 L -101.4 -93 Q -101.7 -93.7 -102.6 -93.7 L -102.6 -93.7 L -102.6 -93.7 Q -103.5 -93.7 -104 -93.2 L -104 -93.2 L -104 -93.2 Q -104.6 -92.6 -105 -91.6 Z M -79.9 -96 L -79.9 -96 L -79.9 -96 Q -78.5 -96 -77.5 -95.7 L -77.5 -95.7 L -77.5 -95.7 Q -77.4 -95.8 -77.3 -96.2 L -77.3 -96.2 L -77.2 -97.4 L -77.2 -97.4 Q -77 -98.2 -76.8 -99.4 L -76.8 -99.4 L -76.2 -102.4 L -68.6 -103.2 L -72.8 -81.2 L -72.8 -81.2 Q -72.9 -80.9 -72.9 -80.5 L -72.9 -80.5 L -72.9 -79.9 L -72.9 -79.9 Q -72.9 -79.1 -72.4 -78.5 L -72.4 -78.5 L -72.4 -78.5 Q -72 -77.8 -71.3 -77.8 L -71.3 -77.8 L -71.3 -77.8 Q -72.1 -76.1 -74.4 -75.3 L -74.4 -75.3 L -74.4 -75.3 Q -75.2 -75.1 -76.3 -75.1 L -76.3 -75.1 L -76.3 -75.1 Q -77.5 -75.1 -78.5 -75.7 L -78.5 -75.7 L -78.5 -75.7 Q -79.5 -76.3 -79.8 -77.2 L -79.8 -77.2 L -79.8 -77.2 Q -80.4 -76.3 -81.6 -75.7 L -81.6 -75.7 L -81.6 -75.7 Q -82.9 -75.1 -84.6 -75.1 L -84.6 -75.1 L -84.6 -75.1 Q -86.4 -75.1 -87.9 -75.5 L -87.9 -75.5 L -87.9 -75.5 Q -89.3 -76 -90.2 -77 L -90.2 -77 L -90.2 -77 Q -91.9 -78.9 -91.9 -83.3 L -91.9 -83.3 L -91.9 -83.3 Q -91.9 -89 -88.6 -92.5 L -88.6 -92.5 L -88.6 -92.5 Q -85.2 -96 -79.9 -96 Z M -80.2 -93.7 L -80.2 -93.7 L -80.2 -93.7 Q -81.6 -93.7 -82.3 -92.2 L -82.3 -92.2 L -82.3 -92.2 Q -83.1 -90.7 -83.9 -86.9 L -83.9 -86.9 L -83.9 -86.9 Q -84.6 -83.1 -84.6 -79.7 L -84.6 -79.7 L -84.6 -79.7 Q -84.6 -77.4 -83.3 -77.4 L -83.3 -77.4 L -83.3 -77.4 Q -82.1 -77.4 -81.2 -78.6 L -81.2 -78.6 L -81.2 -78.6 Q -80.3 -79.9 -80 -81.9 L -80 -81.9 L -78 -93 L -78 -93 Q -78.8 -93.7 -80.2 -93.7 Z M -40.8 -75.1 L -40.8 -75.1 L -40.8 -75.1 Q -45.4 -75.1 -45.4 -78.6 L -45.4 -78.6 L -45.4 -78.6 Q -45.4 -80.2 -44.7 -83.2 L -44.7 -83.2 L -44.7 -83.2 Q -44 -86.2 -43.8 -87.5 L -43.8 -87.5 L -43.8 -87.5 Q -43.3 -90.2 -43.3 -91.1 L -43.3 -91.1 L -43.3 -91.1 Q -43.3 -93 -44.7 -93 L -44.7 -93 L -44.7 -93 Q -45.7 -93 -46.6 -91.7 L -46.6 -91.7 L -46.6 -91.7 Q -47.5 -90.4 -47.9 -87.8 L -47.9 -87.8 L -50.3 -75.8 L -57.7 -75.1 L -55.6 -85.4 L -55.6 -85.4 Q -55.3 -87.1 -55 -89.1 L -55 -89.1 L -55 -89.1 Q -54.7 -91 -54.7 -91.3 L -54.7 -91.3 L -54.7 -91.3 Q -54.7 -93 -56 -93 L -56 -93 L -56 -93 Q -56.8 -93 -57.8 -91.8 L -57.8 -91.8 L -57.8 -91.8 Q -58.7 -90.5 -59.3 -87.8 L -59.3 -87.8 L -61.6 -75.8 L -69.1 -75.1 L -65.1 -95.2 L -58.9 -96 L -59.5 -92.1 L -59.5 -92.1 Q -58.5 -94.2 -56.7 -95.1 L -56.7 -95.1 L -56.7 -95.1 Q -54.9 -96 -52 -96 L -52 -96 L -52 -96 Q -50.4 -96 -49.3 -95.2 L -49.3 -95.2 L -49.3 -95.2 Q -48.3 -94.4 -47.9 -93.1 L -47.9 -93.1 L -47.9 -93.1 Q -47.3 -94.4 -45.6 -95.2 L -45.6 -95.2 L -45.6 -95.2 Q -44 -96 -42 -96 L -42 -96 L -42 -96 Q -39.9 -96 -38.9 -95.5 L -38.9 -95.5 L -38.9 -95.5 Q -37.9 -95.1 -37.3 -94.4 L -37.3 -94.4 L -37.3 -94.4 Q -36.3 -93 -36.3 -90.6 L -36.3 -90.6 L -36.3 -90.6 Q -36.3 -88.2 -37.3 -83.2 L -37.3 -83.2 L -37.3 -83.2 Q -37.8 -80.8 -37.8 -79.9 L -37.8 -79.9 L -37.8 -79.9 Q -37.8 -79 -37.3 -78.5 L -37.3 -78.5 L -37.3 -78.5 Q -36.8 -78 -36 -77.9 L -36 -77.9 L -36 -77.9 Q -36.4 -76.6 -37.7 -75.8 L -37.7 -75.8 L -37.7 -75.8 Q -39 -75.1 -40.8 -75.1 Z M -31.5 -77 L -31.5 -77 L -31.5 -77 Q -32.4 -78 -32.8 -79.5 L -32.8 -79.5 L -32.8 -79.5 Q -33.2 -81.1 -33.2 -83.6 L -33.2 -83.6 L -33.2 -83.6 Q -33.2 -86.2 -32.3 -88.5 L -32.3 -88.5 L -32.3 -88.5 Q -31.4 -90.8 -29.8 -92.5 L -29.8 -92.5 L -29.8 -92.5 Q -26.5 -96 -21.1 -96 L -21.1 -96 L -21.1 -96 Q -19.2 -96 -17.8 -95.3 L -17.8 -95.3 L -11.3 -96 L -14.1 -81.2 L -14.1 -81.2 Q -14.2 -80.7 -14.2 -79.9 L -14.2 -79.9 L -14.2 -79.9 Q -14.2 -79 -13.7 -78.5 L -13.7 -78.5 L -13.7 -78.5 Q -13.2 -78 -12.4 -77.9 L -12.4 -77.9 L -12.4 -77.9 Q -12.8 -76.6 -14.2 -75.8 L -14.2 -75.8 L -14.2 -75.8 Q -15.6 -75.1 -17.2 -75.1 L -17.2 -75.1 L -17.2 -75.1 Q -18.7 -75.1 -19.8 -75.7 L -19.8 -75.7 L -19.8 -75.7 Q -20.8 -76.3 -21.1 -77.2 L -21.1 -77.2 L -21.1 -77.2 Q -21.7 -76.3 -23 -75.7 L -23 -75.7 L -23 -75.7 Q -24.3 -75.1 -26 -75.1 L -26 -75.1 L -26 -75.1 Q -27.8 -75.1 -29.2 -75.5 L -29.2 -75.5 L -29.2 -75.5 Q -30.6 -76 -31.5 -77 Z M -23.4 -92.4 L -23.4 -92.4 L -23.4 -92.4 Q -23.9 -91.7 -24.3 -90.6 L -24.3 -90.6 L -24.3 -90.6 Q -24.6 -89.4 -25.3 -86.3 L -25.3 -86.3 L -25.3 -86.3 Q -25.9 -83.2 -25.9 -81 L -25.9 -81 L -25.9 -81 Q -25.9 -78.8 -25.6 -78.2 L -25.6 -78.2 L -25.6 -78.2 Q -25.2 -77.5 -24.6 -77.5 L -24.6 -77.5 L -24.6 -77.5 Q -23.4 -77.5 -22.5 -78.7 L -22.5 -78.7 L -22.5 -78.7 Q -21.6 -79.8 -21.3 -81.9 L -21.3 -81.9 L -19.2 -93 L -19.2 -93 Q -20 -93.7 -21 -93.7 L -21 -93.7 L -21 -93.7 Q -21.9 -93.7 -22.5 -93.4 L -22.5 -93.4 L -22.5 -93.4 Q -23 -93.1 -23.4 -92.4 Z M 6.8 -75.1 L 6.8 -75.1 L 6.8 -75.1 Q 2.2 -75.1 2.2 -78.6 L 2.2 -78.6 L 2.2 -78.6 Q 2.3 -79.6 2.6 -81.3 L 2.6 -81.3 L 3.3 -84.8 L 3.3 -84.8 Q 4.3 -89.7 4.3 -90.8 L 4.3 -90.8 L 4.3 -90.8 Q 4.3 -93 3 -93 L 3 -93 L 3 -93 Q 0.8 -93 -0.3 -87.4 L -0.3 -87.4 L -2.6 -75.8 L -10.2 -75.1 L -6.2 -95.3 L 0 -96 L -0.6 -92.3 L -0.6 -92.3 Q 1.2 -96 6.6 -96 L 6.6 -96 L 6.6 -96 Q 9.3 -96 10.4 -94.9 L 10.4 -94.9 L 10.4 -94.9 Q 11.5 -93.7 11.5 -91.2 L 11.5 -91.2 L 11.5 -91.2 Q 11.5 -88.9 10.3 -83.4 L 10.3 -83.4 L 10.3 -83.4 Q 9.7 -80.9 9.7 -80 L 9.7 -80 L 9.7 -80 Q 9.7 -79 10.3 -78.5 L 10.3 -78.5 L 10.3 -78.5 Q 10.8 -78 11.5 -77.9 L 11.5 -77.9 L 11.5 -77.9 Q 11.2 -76.6 9.8 -75.8 L 9.8 -75.8 L 9.8 -75.8 Q 8.5 -75.1 6.8 -75.1 Z M 25.4 -94.3 L 25.4 -94.3 L 25.4 -94.3 Q 24.2 -95.3 24.2 -97.4 L 24.2 -97.4 L 24.2 -97.4 Q 24.2 -99.5 25.5 -100.6 L 25.5 -100.6 L 25.5 -100.6 Q 26.9 -101.8 29.3 -101.8 L 29.3 -101.8 L 29.3 -101.8 Q 30.8 -101.8 34.4 -101.2 L 34.4 -101.2 L 37 -100.8 L 37 -100.8 Q 38.3 -100.7 39.7 -100.7 L 39.7 -100.7 L 39.7 -100.7 Q 41 -100.7 41.9 -101.3 L 41.9 -101.3 L 41.9 -101.3 Q 43.3 -100 43.3 -98.3 L 43.3 -98.3 L 43.3 -98.3 Q 43.3 -96.5 41.7 -95.3 L 41.7 -95.3 L 41.7 -95.3 Q 40.1 -94 38.1 -94 L 38.1 -94 L 38.1 -94 Q 37.1 -94 35.5 -94.2 L 35.5 -94.2 L 35.5 -94.2 Q 33.7 -88.4 33.7 -84.3 L 33.7 -84.3 L 33.7 -84.3 Q 33.7 -80.2 35.7 -78.1 L 35.7 -78.1 L 35.7 -78.1 Q 34.8 -76.4 33.3 -75.7 L 33.3 -75.7 L 33.3 -75.7 Q 31.9 -75.1 29.8 -75.1 L 29.8 -75.1 L 29.8 -75.1 Q 27.7 -75.1 26.4 -76.2 L 26.4 -76.2 L 26.4 -76.2 Q 25.1 -77.4 25.1 -79.8 L 25.1 -79.8 L 25.1 -79.8 Q 25.1 -82.6 26.6 -87.1 L 26.6 -87.1 L 26.6 -87.1 Q 28.1 -91.6 30.4 -95.1 L 30.4 -95.1 L 30.4 -95.1 Q 29.3 -95.2 28.2 -95.2 L 28.2 -95.2 L 28.2 -95.2 Q 25.8 -95.2 25.4 -94.3 Z M 53.8 -86.5 L 53.8 -86.5 L 53.8 -86.5 Q 55.1 -88.9 55.1 -91.4 L 55.1 -91.4 L 55.1 -91.4 Q 55.1 -93 53.9 -93 L 53.9 -93 L 53.9 -93 Q 53 -93 52.1 -91.5 L 52.1 -91.5 L 52.1 -91.5 Q 51.1 -89.9 50.8 -87.9 L 50.8 -87.9 L 48.8 -75.8 L 40.9 -75.1 L 44.8 -95.2 L 51.1 -96 L 50.4 -92.1 L 50.4 -92.1 Q 52.3 -96 56.5 -96 L 56.5 -96 L 56.5 -96 Q 58.7 -96 59.9 -94.8 L 59.9 -94.8 L 59.9 -94.8 Q 61 -93.7 61 -91.4 L 61 -91.4 L 61 -91.4 Q 61 -89 59.5 -87.5 L 59.5 -87.5 L 59.5 -87.5 Q 58 -86.1 55.3 -86.1 L 55.3 -86.1 L 55.3 -86.1 Q 54.2 -86.1 53.8 -86.5 Z M 63.3 -77 L 63.3 -77 L 63.3 -77 Q 62.4 -78 62 -79.5 L 62 -79.5 L 62 -79.5 Q 61.6 -81.1 61.6 -83.6 L 61.6 -83.6 L 61.6 -83.6 Q 61.6 -86.2 62.5 -88.5 L 62.5 -88.5 L 62.5 -88.5 Q 63.4 -90.8 65 -92.5 L 65 -92.5 L 65 -92.5 Q 68.2 -96 73.6 -96 L 73.6 -96 L 73.6 -96 Q 75.6 -96 77 -95.3 L 77 -95.3 L 83.5 -96 L 80.7 -81.2 L 80.7 -81.2 Q 80.5 -80.7 80.5 -79.9 L 80.5 -79.9 L 80.5 -79.9 Q 80.5 -79 81.1 -78.5 L 81.1 -78.5 L 81.1 -78.5 Q 81.6 -78 82.3 -77.9 L 82.3 -77.9 L 82.3 -77.9 Q 81.9 -76.6 80.6 -75.8 L 80.6 -75.8 L 80.6 -75.8 Q 79.2 -75.1 77.6 -75.1 L 77.6 -75.1 L 77.6 -75.1 Q 76.1 -75.1 75 -75.7 L 75 -75.7 L 75 -75.7 Q 74 -76.3 73.7 -77.2 L 73.7 -77.2 L 73.7 -77.2 Q 73.1 -76.3 71.8 -75.7 L 71.8 -75.7 L 71.8 -75.7 Q 70.5 -75.1 68.7 -75.1 L 68.7 -75.1 L 68.7 -75.1 Q 67 -75.1 65.6 -75.5 L 65.6 -75.5 L 65.6 -75.5 Q 64.2 -76 63.3 -77 Z M 71.3 -92.4 L 71.3 -92.4 L 71.3 -92.4 Q 70.9 -91.7 70.5 -90.6 L 70.5 -90.6 L 70.5 -90.6 Q 70.1 -89.4 69.5 -86.3 L 69.5 -86.3 L 69.5 -86.3 Q 68.9 -83.2 68.9 -81 L 68.9 -81 L 68.9 -81 Q 68.9 -78.8 69.2 -78.2 L 69.2 -78.2 L 69.2 -78.2 Q 69.6 -77.5 70.2 -77.5 L 70.2 -77.5 L 70.2 -77.5 Q 71.4 -77.5 72.3 -78.7 L 72.3 -78.7 L 72.3 -78.7 Q 73.2 -79.8 73.5 -81.9 L 73.5 -81.9 L 75.5 -93 L 75.5 -93 Q 74.7 -93.7 73.8 -93.7 L 73.8 -93.7 L 73.8 -93.7 Q 72.9 -93.7 72.3 -93.4 L 72.3 -93.4 L 72.3 -93.4 Q 71.8 -93.1 71.3 -92.4 Z M 101.6 -75.1 L 101.6 -75.1 L 101.6 -75.1 Q 97 -75.1 97 -78.6 L 97 -78.6 L 97 -78.6 Q 97 -79.6 97.3 -81.3 L 97.3 -81.3 L 98 -84.8 L 98 -84.8 Q 99 -89.7 99 -90.8 L 99 -90.8 L 99 -90.8 Q 99 -93 97.8 -93 L 97.8 -93 L 97.8 -93 Q 95.6 -93 94.5 -87.4 L 94.5 -87.4 L 92.2 -75.8 L 84.6 -75.1 L 88.5 -95.3 L 94.8 -96 L 94.1 -92.3 L 94.1 -92.3 Q 95.9 -96 101.4 -96 L 101.4 -96 L 101.4 -96 Q 104.1 -96 105.2 -94.9 L 105.2 -94.9 L 105.2 -94.9 Q 106.3 -93.7 106.3 -91.2 L 106.3 -91.2 L 106.3 -91.2 Q 106.3 -88.9 105.1 -83.4 L 105.1 -83.4 L 105.1 -83.4 Q 104.5 -80.9 104.5 -80 L 104.5 -80 L 104.5 -80 Q 104.5 -79 105 -78.5 L 105 -78.5 L 105 -78.5 Q 105.5 -78 106.3 -77.9 L 106.3 -77.9 L 106.3 -77.9 Q 105.9 -76.6 104.6 -75.8 L 104.6 -75.8 L 104.6 -75.8 Q 103.3 -75.1 101.6 -75.1 Z M 120.7 -89.2 L 120.7 -89.2 L 120.7 -89.2 Q 121.2 -90.6 121.2 -91.8 L 121.2 -91.8 L 121.2 -91.8 Q 121.2 -94 119.4 -94 L 119.4 -94 L 119.4 -94 Q 118.5 -94 117.7 -93.2 L 117.7 -93.2 L 117.7 -93.2 Q 116.9 -92.3 116.9 -91.3 L 116.9 -91.3 L 116.9 -91.3 Q 116.9 -90.5 117.5 -89.9 L 117.5 -89.9 L 117.5 -89.9 Q 118.4 -89.1 120.6 -87.7 L 120.6 -87.7 L 120.6 -87.7 Q 122.9 -86.3 123.7 -85.2 L 123.7 -85.2 L 123.7 -85.2 Q 124.6 -84.1 124.6 -82.5 L 124.6 -82.5 L 124.6 -82.5 Q 124.6 -81 123.8 -79.6 L 123.8 -79.6 L 123.8 -79.6 Q 123.1 -78.2 121.8 -77.2 L 121.8 -77.2 L 121.8 -77.2 Q 118.9 -75.1 114.4 -75.1 L 114.4 -75.1 L 114.4 -75.1 Q 111.9 -75.1 110 -76.4 L 110 -76.4 L 110 -76.4 Q 108.1 -77.6 108.1 -79.1 L 108.1 -79.1 L 108.1 -79.1 Q 108.1 -80.6 109.2 -81.5 L 109.2 -81.5 L 109.2 -81.5 Q 110.3 -82.3 111.9 -82.3 L 111.9 -82.3 L 111.9 -82.3 Q 113.5 -82.3 114.4 -81.7 L 114.4 -81.7 L 114.4 -81.7 Q 113.9 -80.5 113.9 -79.6 L 113.9 -79.6 L 113.9 -79.6 Q 113.9 -77.1 116.1 -77.1 L 116.1 -77.1 L 116.1 -77.1 Q 117 -77.1 117.6 -77.7 L 117.6 -77.7 L 117.6 -77.7 Q 118.2 -78.3 118.2 -79.3 L 118.2 -79.3 L 118.2 -79.3 Q 118.2 -81.2 114.9 -83.2 L 114.9 -83.2 L 114.9 -83.2 Q 112.3 -85 111.7 -85.7 L 111.7 -85.7 L 111.7 -85.7 Q 110.6 -86.9 110.6 -88.4 L 110.6 -88.4 L 110.6 -88.4 Q 110.6 -89.9 111.4 -91.4 L 111.4 -91.4 L 111.4 -91.4 Q 112.1 -92.8 113.4 -93.8 L 113.4 -93.8 L 113.4 -93.8 Q 116.2 -96 121 -96 L 121 -96 L 121 -96 Q 123.5 -96 124.9 -95 L 124.9 -95 L 124.9 -95 Q 126.4 -94 126.4 -92.3 L 126.4 -92.3 L 126.4 -92.3 Q 126.4 -90.7 125.4 -89.7 L 125.4 -89.7 L 125.4 -89.7 Q 124.4 -88.8 122.6 -88.8 L 122.6 -88.8 L 122.6 -88.8 Q 121.3 -88.8 120.7 -89.2 Z M 145.5 -78.4 L 145.5 -78.4 L 145.5 -78.4 Q 143.9 -76.8 141.7 -75.9 L 141.7 -75.9 L 141.7 -75.9 Q 139.6 -75.1 137.4 -75.1 L 137.4 -75.1 L 137.4 -75.1 Q 135.2 -75.1 134.5 -75.5 L 134.5 -75.5 L 133.3 -69 L 125.6 -68.2 L 130.8 -95.2 L 137 -95.9 L 136.5 -93.2 L 136.5 -93.2 Q 138.1 -95.9 141.4 -95.9 L 141.4 -95.9 L 141.4 -95.9 Q 145.1 -95.9 147.1 -93.5 L 147.1 -93.5 L 147.1 -93.5 Q 148.9 -91.4 148.9 -88.1 L 148.9 -88.1 L 148.9 -88.1 Q 148.9 -84.8 148 -82.4 L 148 -82.4 L 148 -82.4 Q 147.1 -80.1 145.5 -78.4 Z M 136.9 -89.1 L 134.9 -78 L 134.9 -78 Q 135.7 -77.3 136.7 -77.3 L 136.7 -77.3 L 136.7 -77.3 Q 137.7 -77.3 138.3 -77.7 L 138.3 -77.7 L 138.3 -77.7 Q 138.8 -78 139.3 -78.8 L 139.3 -78.8 L 139.3 -78.8 Q 140.4 -80.9 141.3 -87.1 L 141.3 -87.1 L 141.3 -87.1 Q 141.6 -88.9 141.6 -90.7 L 141.6 -90.7 L 141.6 -90.7 Q 141.6 -92.5 141.2 -93 L 141.2 -93 L 141.2 -93 Q 140.8 -93.6 140 -93.6 L 140 -93.6 L 140 -93.6 Q 137.7 -93.6 136.9 -89.1 L 136.9 -89.1 Z M 159.4 -75.1 L 159.4 -75.1 L 159.4 -75.1 Q 151.1 -75.1 151.1 -82.9 L 151.1 -82.9 L 151.1 -82.9 Q 151.1 -88.5 154.1 -92.1 L 154.1 -92.1 L 154.1 -92.1 Q 157.4 -96 163.1 -96 L 163.1 -96 L 163.1 -96 Q 167.2 -96 169.3 -94.1 L 169.3 -94.1 L 169.3 -94.1 Q 171.4 -92.2 171.4 -88.2 L 171.4 -88.2 L 171.4 -88.2 Q 171.4 -82.1 168.1 -78.6 L 168.1 -78.6 L 168.1 -78.6 Q 164.9 -75.1 159.4 -75.1 Z M 160.4 -91.6 L 160.4 -91.6 L 160.4 -91.6 Q 160 -90.6 159.6 -89 L 159.6 -89 L 159.6 -89 Q 159.2 -87.5 158.8 -85.1 L 158.8 -85.1 L 158.8 -85.1 Q 158.3 -82.6 158.3 -79.6 L 158.3 -79.6 L 158.3 -79.6 Q 158.3 -78.6 158.7 -78 L 158.7 -78 L 158.7 -78 Q 159 -77.4 159.8 -77.4 L 159.8 -77.4 L 159.8 -77.4 Q 160.7 -77.4 161.3 -77.8 L 161.3 -77.8 L 161.3 -77.8 Q 161.8 -78.2 162.2 -79.2 L 162.2 -79.2 L 162.2 -79.2 Q 163 -80.9 163.6 -84.2 L 163.6 -84.2 L 163.6 -84.2 Q 164.2 -87.4 164.3 -88.8 L 164.3 -88.8 L 164.3 -88.8 Q 164.3 -90.2 164.3 -91.3 L 164.3 -91.3 L 164.3 -91.3 Q 164.3 -92.3 164 -93 L 164 -93 L 164 -93 Q 163.7 -93.7 162.9 -93.7 L 162.9 -93.7 L 162.9 -93.7 Q 162 -93.7 161.4 -93.2 L 161.4 -93.2 L 161.4 -93.2 Q 160.9 -92.6 160.4 -91.6 Z M 185.5 -86.5 L 185.5 -86.5 L 185.5 -86.5 Q 186.9 -88.9 186.9 -91.4 L 186.9 -91.4 L 186.9 -91.4 Q 186.9 -93 185.7 -93 L 185.7 -93 L 185.7 -93 Q 184.8 -93 183.8 -91.5 L 183.8 -91.5 L 183.8 -91.5 Q 182.8 -89.9 182.5 -87.9 L 182.5 -87.9 L 180.6 -75.8 L 172.7 -75.1 L 176.6 -95.2 L 182.8 -96 L 182.2 -92.1 L 182.2 -92.1 Q 184 -96 188.2 -96 L 188.2 -96 L 188.2 -96 Q 190.4 -96 191.6 -94.8 L 191.6 -94.8 L 191.6 -94.8 Q 192.8 -93.7 192.8 -91.4 L 192.8 -91.4 L 192.8 -91.4 Q 192.8 -89 191.3 -87.5 L 191.3 -87.5 L 191.3 -87.5 Q 189.7 -86.1 187.1 -86.1 L 187.1 -86.1 L 187.1 -86.1 Q 186 -86.1 185.5 -86.5 Z M 194 -79.6 L 194 -79.6 L 194 -79.6 Q 194 -80.7 194.5 -83.2 L 194.5 -83.2 L 196.6 -93.5 L 194.3 -93.5 L 194.5 -94.6 L 194.5 -94.6 Q 199 -96 203.4 -99.4 L 203.4 -99.4 L 205.3 -99.4 L 204.3 -95.2 L 207.3 -95.2 L 207 -93.5 L 204 -93.5 L 202.1 -83.2 L 202.1 -83.2 Q 201.6 -80.9 201.6 -80.1 L 201.6 -80.1 L 201.6 -80.1 Q 201.6 -78.3 203.2 -77.9 L 203.2 -77.9 L 203.2 -77.9 Q 202.8 -76.6 201.5 -75.8 L 201.5 -75.8 L 201.5 -75.8 Q 200.1 -75.1 198.2 -75.1 L 198.2 -75.1 L 198.2 -75.1 Q 196.2 -75.1 195.1 -76.3 L 195.1 -76.3 L 195.1 -76.3 Q 194 -77.5 194 -79.6 Z" fill="#ffffff"></path></g></g><style>text {
  font-size: 64px;
  font-family: Arial Black;
  dominant-baseline: central;
  text-anchor: middle;
}</style></svg>